# xmcd
#
# Track frame offsets: 
#        150
#        11046
#        21037
#        35000
#        46173
#        58784
#        69430
#        80689
#        93257
#        102433
#        115635
#        126536
#
# Disc length: 1826 seconds
#
# Revision: 0
# Processed by: cddbd v1.5.2PL0 Copyright (c) Steve Scherf et al.
# Submitted via: ExactAudioCopyFreeDBPlugin 1.0
#
DISCID=9d07200c
DTITLE=Crockett (Charley) - Lonesome As a Shadow
DYEAR=2018
DGENRE=Blues
TTITLE0=I Wanna Cry
TTITLE1=The Sky'd Become Teardrops
TTITLE2=Ain't Gotta Worry Child
TTITLE3=How Long Will I Last
TTITLE4=If Not the Fool
TTITLE5=Help Me Georgia
TTITLE6=Lonesome as a Shadow
TTITLE7=Sad and Blue
TTITLE8=Lil' Girl's Name
TTITLE9=Oh so Shaky
TTITLE10=Goin' Back to Texas
TTITLE11=Change Yo' Mind
EXTD=
EXTT0=
EXTT1=
EXTT2=
EXTT3=
EXTT4=
EXTT5=
EXTT6=
EXTT7=
EXTT8=
EXTT9=
EXTT10=
EXTT11=
PLAYORDER=
